<svg xmlns="http://www.w3.org/2000/svg" width="80" height="80"><path class="si-icon" fill="#FFF" d="M64 39.382c0 12.913-10.549 23.382-23.564 23.382a23.603 23.603 0 0 1-11.39-2.91L16 64l4.253-12.545a23.136 23.136 0 0 1-3.381-12.073C16.872 26.468 27.422 16 40.436 16 53.452 16 64 26.468 64 39.382zM40.436 19.724c-10.925 0-19.81 8.818-19.81 19.658 0 4.301 1.401 8.285 3.773 11.525l-2.475 7.301 7.613-2.42a19.798 19.798 0 0 0 10.9 3.252c10.923 0 19.811-8.818 19.811-19.657 0-10.84-8.887-19.66-19.812-19.66zm11.9 25.043c-.146-.238-.53-.382-1.108-.669-.578-.286-3.418-1.673-3.946-1.864-.53-.19-.916-.287-1.3.287-.385.573-1.492 1.864-1.83 2.246-.337.383-.674.431-1.252.144-.577-.286-2.438-.892-4.644-2.844-1.717-1.519-2.876-3.394-3.213-3.968-.337-.574-.036-.884.253-1.169.26-.257.578-.67.867-1.004.29-.335.385-.573.577-.956.193-.382.097-.717-.048-1.004-.144-.287-1.3-3.107-1.782-4.255-.48-1.146-.961-.955-1.299-.955-.336 0-.722-.048-1.107-.048s-1.011.143-1.54.717c-.53.573-2.022 1.96-2.022 4.78 0 2.82 2.07 5.545 2.359 5.927.288.382 3.994 6.357 9.866 8.652 5.873 2.294 5.873 1.529 6.932 1.433 1.058-.096 3.417-1.387 3.9-2.724.48-1.34.48-2.487.336-2.726z" data-svg-origin="15.902239918708801 13.69399619102478"/></svg>